# File created by Blade
# Date/Time:  Tue Jan 27 18:12:51 2015
#---------------------------------------------------------
:version 1.10
:name HOM
:units
  mass 1.0
  length 1.000000
  angle deg
:documentation
     Acclaim Skeleton File
:root
   axis xyz
   order TX TY TZ RX RY RZ
   position 0.000000 0.000000 0.000000
   orientation 0 0 0
:bonedata
   begin
      id 1
      name Spine_dum
      direction 0.000000 1.000000 0.000000
      length 5.195262
      axis 0.0 0.0 0.0 xyz
   end
   begin
      id 2
      name LeftUpLeg_dum
      direction 1.000000 0.000000 0.000000
      length 3.351363
      axis 0.0 0.0 0.0 xyz
   end
   begin
      id 3
      name RightUpLeg_dum
      direction -1.000000 0.000000 0.000000
      length 3.351363
      axis 0.0 0.0 0.0 xyz
   end
   begin
      id 4
      name Spine
      direction 0.000000 1.000000 0.000000
      length 0.000000
      axis 0.0 0.0 0.0 xyz
      dof rx ry rz
   end
   begin
      id 5
      name Spine_dum1
      direction 0.000000 1.000000 0.000000
      length 15.653875
      axis 0.0 0.0 0.0 xyz
   end
   begin
      id 6
      name Spine_dum2
      direction 0.000000 1.000000 0.000000
      length 10.329768
      axis 0.0 0.0 0.0 xyz
   end
   begin
      id 7
      name Spine_dum3
      direction 0.000000 1.000000 0.000000
      length 10.329768
      axis 0.0 0.0 0.0 xyz
   end
   begin
      id 8
      name Head
      direction 0.000000 1.000000 0.000000
      length 4.527550
      axis 0.0 0.0 0.0 xyz
      dof rx ry rz
   end
   begin
      id 9
      name LeftShoulder
      direction 1.000000 0.000000 0.000000
      length 6.996006
      axis 0.0 0.0 -90.0 xyz
      dof rx ry rz
   end
   begin
      id 10
      name LeftArm
      direction 1.000000 0.000000 0.000000
      length 10.209302
      axis 0.0 0.0 -90.0 xyz
      dof rx ry rz
   end
   begin
      id 11
      name LeftForeArm
      direction 1.000000 0.000000 0.000000
      length 8.563163
      axis 0.0 0.0 -90.0 xyz
      dof ry rz rx
   end
   begin
      id 12
      name LeftHand
      direction 0.000000 0.000000 0.000000
      length 0.000000
      axis 0.0 0.0 -90.0 xyz
      dof rx ry rz
   end
   begin
      id 13
      name LeftHand_dum1
      direction 0.000000 0.000000 0.000000
      length 0.000000
      axis 0.0 0.0 -90.0 xyz
   end
   begin
      id 14
      name LeftHand_dum2
      direction 1.000000 0.000000 0.000000
      length 3.937000
      axis 0.0 0.0 -90.0 xyz
   end
   begin
      id 15
      name LeftHandThumb1
      direction 0.000000 0.000000 1.000000
      length 3.937000
      axis 0.0 0.0 -90.0 xyz
      dof rx rz ry
   end
   begin
      id 16
      name RightShoulder
      direction -1.000000 0.000000 0.000000
      length 6.996006
      axis 0.0 0.0 90.0 xyz
      dof rx ry rz
   end
   begin
      id 17
      name RightArm
      direction -1.000000 0.000000 0.000000
      length 10.209302
      axis 0.0 0.0 90.0 xyz
      dof rx ry rz
   end
   begin
      id 18
      name RightForeArm
      direction -1.000000 0.000000 0.000000
      length 8.563163
      axis 0.0 0.0 90.0 xyz
      dof ry rz rx
   end
   begin
      id 19
      name RightHand
      direction 0.000000 0.000000 0.000000
      length 0.000000
      axis 0.0 0.0 90.0 xyz
      dof rx ry rz
   end
   begin
      id 20
      name RightHand_dum1
      direction 0.000000 0.000000 0.000000
      length 0.000000
      axis 0.0 0.0 90.0 xyz
   end
   begin
      id 21
      name RightHand_dum2
      direction -1.000000 0.000000 0.000000
      length 3.937000
      axis 0.0 0.0 90.0 xyz
   end
   begin
      id 22
      name RightHandThumb1
      direction 0.000000 0.000000 1.000000
      length 3.937000
      axis 0.0 0.0 90.0 xyz
      dof rx rz ry
   end
   begin
      id 23
      name LeftUpLeg
      direction 0.000000 -1.000000 0.000000
      length 16.346831
      axis 0.0 0.0 0.0 xyz
      dof rx ry rz
   end
   begin
      id 24
      name LeftLeg
      direction 0.000000 -1.000000 0.000000
      length 13.959795
      axis 0.0 0.0 0.0 xyz
      dof rx ry rz
   end
   begin
      id 25
      name LeftFoot
      direction 0.000000 -0.258819 0.965926
      length 5.165550
      axis 15.0 0.0 0.0 xyz
      dof rx ry rz
   end
   begin
      id 26
      name LeftToeBase
      direction 0.000000 0.000000 1.000000
      length 2.952750
      axis 0.0 0.0 0.0 xyz
      dof rx ry rz
   end
   begin
      id 27
      name RightUpLeg
      direction 0.000000 -1.000000 0.000000
      length 16.346831
      axis 0.0 0.0 0.0 xyz
      dof rx ry rz
   end
   begin
      id 28
      name RightLeg
      direction 0.000000 -1.000000 0.000000
      length 13.959795
      axis 0.0 0.0 0.0 xyz
      dof rx ry rz
   end
   begin
      id 29
      name RightFoot
      direction 0.000000 -0.258819 0.965926
      length 5.165550
      axis 15.0 0.0 0.0 xyz
      dof rx ry rz
   end
   begin
      id 30
      name RightToeBase
      direction 0.000000 0.000000 1.000000
      length 2.952750
      axis 0.0 0.0 0.0 xyz
      dof rx ry rz
   end
:hierarchy
   begin
      root Spine_dum LeftUpLeg_dum RightUpLeg_dum
      Spine_dum Spine
      LeftUpLeg_dum LeftUpLeg
      RightUpLeg_dum RightUpLeg
      Spine Spine_dum1 Spine_dum2 Spine_dum3
      Spine_dum1 Head
      Spine_dum2 LeftShoulder
      Spine_dum3 RightShoulder
      LeftShoulder LeftArm
      LeftArm LeftForeArm
      LeftForeArm LeftHand
      LeftHand LeftHand_dum1 LeftHand_dum2
      LeftHand_dum1 LeftHandThumb1
      RightShoulder RightArm
      RightArm RightForeArm
      RightForeArm RightHand
      RightHand RightHand_dum1 RightHand_dum2
      RightHand_dum1 RightHandThumb1
      LeftUpLeg LeftLeg
      LeftLeg LeftFoot
      LeftFoot LeftToeBase
      RightUpLeg RightLeg
      RightLeg RightFoot
      RightFoot RightToeBase
   end

# File created by Blade
# Date/Time:  Tue Jan 27 18:12:42 2015
# Frame Rate: 120.000 fps
#------------------------------------------------------
:FULLY-SPECIFIED
:DEGREES
921
root -1.203939 31.780601 -6.556138 4.843951 20.568443 5.332014
Spine -8.043864 4.266406 -3.274539
Head 11.032929 -11.081648 1.496864
LeftShoulder -9.119800 16.924961 3.664565
LeftArm 27.403321 40.945732 -67.228515
LeftForeArm -3.261434 -0.000000 14.536162
LeftHand -10.588707 -0.000000 -5.411596
LeftHandThumb1 -26.253704 0.000000 33.147579
RightShoulder 11.523841 26.486050 -12.401574
RightArm 20.611034 19.839904 118.523126
RightForeArm 24.566129 -0.000000 102.307349
RightHand -8.239652 -0.000000 1.579441
RightHandThumb1 -24.326973 -0.000000 -32.862282
LeftUpLeg -1.506699 -8.754217 -2.232005
LeftLeg 1.882184 -0.000000 -0.000000
LeftFoot -14.969592 11.713690 -23.180937
LeftToeBase 8.462915 -0.000000 -0.000000
RightUpLeg 5.528234 -12.100154 -5.220228
RightLeg -3.395813 -0.000000 0.000000
RightFoot -18.470082 -18.909068 11.533143
RightToeBase 5.610854 -0.000000 -0.000000
922
root -1.201141 31.780960 -6.560012 4.839042 20.493127 5.332457
Spine -8.023618 4.207962 -3.239324
Head 10.921182 -10.868922 1.432315
LeftShoulder -9.148752 16.951893 3.682972
LeftArm 27.313614 40.911440 -67.324206
LeftForeArm -3.361768 -0.000000 14.556398
LeftHand -10.616116 -0.000000 -5.404687
LeftHandThumb1 -26.253704 0.000000 33.147579
RightShoulder 11.467896 26.381501 -12.298351
RightArm 20.390273 20.260526 118.459886
RightForeArm 24.743803 -0.000000 102.139141
RightHand -8.248816 0.000000 1.262920
RightHandThumb1 -24.326973 -0.000000 -32.862282
LeftUpLeg -1.493931 -8.746577 -2.242797
LeftLeg 1.865859 -0.000000 -0.000000
LeftFoot -14.996295 11.761856 -23.219142
LeftToeBase 8.449143 -0.000000 -0.000000
RightUpLeg 5.508900 -12.088728 -5.233970
RightLeg -3.386990 -0.000000 0.000000
RightFoot -18.460078 -18.856861 11.520025
RightToeBase 5.616156 -0.000000 -0.000000
923
root -1.199215 31.781406 -6.563223 4.831023 20.406750 5.333652
Spine -8.006854 4.144536 -3.192347
Head 10.817134 -10.644247 1.348334
LeftShoulder -9.157249 16.985761 3.687878
LeftArm 27.220471 40.866927 -67.402817
LeftForeArm -3.526477 0.000000 14.560520
LeftHand -10.617906 -0.000000 -5.414472
LeftHandThumb1 -26.253704 0.000000 33.147579
RightShoulder 11.389969 26.198657 -12.259647
RightArm 20.253978 20.537046 118.425913
RightForeArm 24.736315 -0.000000 101.924454
RightHand -8.251345 0.000000 1.157228
RightHandThumb1 -24.326973 -0.000000 -32.862282
LeftUpLeg -1.480997 -8.681152 -2.257869
LeftLeg 1.859409 -0.000000 -0.000000
LeftFoot -14.988386 11.785177 -23.192192
LeftToeBase 8.402554 -0.000000 -0.000000
RightUpLeg 5.498430 -12.025768 -5.245621
RightLeg -3.394207 -0.000000 0.000000
RightFoot -18.443871 -18.855819 11.492530
RightToeBase 5.633004 -0.000000 -0.000000
924
root -1.196208 31.781641 -6.566876 4.824493 20.317951 5.338527
Spine -7.986893 4.043430 -3.137562
Head 10.691002 -10.397650 1.285042
LeftShoulder -9.207252 17.013999 3.680310
LeftArm 27.141357 40.855865 -67.466927
LeftForeArm -3.656406 0.000000 14.564126
LeftHand -10.618596 -0.000000 -5.449264
LeftHandThumb1 -26.253704 0.000000 33.147579
RightShoulder 11.370094 26.047863 -12.199747
RightArm 20.095497 20.713155 118.323525
RightForeArm 24.640533 -0.000000 101.725144
RightHand -8.347419 -0.000000 0.846792
RightHandThumb1 -24.326973 -0.000000 -32.862282
LeftUpLeg -1.476839 -8.622261 -2.280795
LeftLeg 1.870800 -0.000000 -0.000000
LeftFoot -15.012286 11.825672 -23.183675
LeftToeBase 8.446460 -0.000000 -0.000000
RightUpLeg 5.489938 -11.993177 -5.265930
RightLeg -3.408041 -0.000000 0.000000
RightFoot -18.417254 -18.811812 11.483622
RightToeBase 5.579526 -0.000000 -0.000000
925
root -1.193501 31.781708 -6.571749 4.823079 20.212722 5.341485
Spine -7.966163 3.955212 -3.073248
Head 10.567699 -10.147064 1.177824
LeftShoulder -9.235069 17.032772 3.673103
LeftArm 27.038697 40.832445 -67.544873
LeftForeArm -3.766918 0.000000 14.579373
LeftHand -10.640748 -0.000000 -5.524292
LeftHandThumb1 -26.253704 0.000000 33.147579
RightShoulder 11.302847 25.859267 -12.178836
RightArm 19.980065 20.678994 118.117130
RightForeArm 24.490466 -0.000000 101.474856
RightHand -8.433792 -0.000000 0.580905
RightHandThumb1 -24.326973 -0.000000 -32.862282
LeftUpLeg -1.468826 -8.589632 -2.299169
LeftLeg 1.864618 -0.000000 -0.000000
LeftFoot -15.045068 11.873238 -23.228143
LeftToeBase 8.476946 -0.000000 -0.000000
RightUpLeg 5.470880 -11.962900 -5.284085
RightLeg -3.424445 -0.000000 0.000000
RightFoot -18.377727 -18.761071 11.444102
RightToeBase 5.575280 -0.000000 -0.000000
926
root -1.189533 31.782636 -6.574390 4.827891 20.091715 5.332266
Spine -7.953942 4.040029 -3.041201
Head 10.417100 -10.045958 1.137351
LeftShoulder -9.158580 17.075408 3.713412
LeftArm 27.061517 40.885818 -67.537149
LeftForeArm -3.828696 -0.000000 14.562342
LeftHand -10.727060 -0.000000 -5.444072
LeftHandThumb1 -26.253704 0.000000 33.147579
RightShoulder 11.057793 25.880828 -12.171101
RightArm 19.635084 20.697376 117.892095
RightForeArm 24.381675 -0.000000 101.279095
RightHand -8.654135 -0.000000 0.599469
RightHandThumb1 -24.326973 -0.000000 -32.862282
LeftUpLeg -1.460356 -8.522423 -2.310346
LeftLeg 1.842582 -0.000000 -0.000000
LeftFoot -15.055024 11.932445 -23.216286
LeftToeBase 8.497584 -0.000000 -0.000000
RightUpLeg 5.445573 -11.912653 -5.291028
RightLeg -3.447570 -0.000000 0.000000
RightFoot -18.334317 -18.708155 11.427516
RightToeBase 5.559055 -0.000000 -0.000000
927
root -1.182491 31.783085 -6.575535 4.819253 19.929332 5.327500
Spine -7.935293 4.027489 -2.956252
Head 10.302902 -9.787563 0.983965
LeftShoulder -9.187248 17.127556 3.683752
LeftArm 26.993576 40.836798 -67.593297
LeftForeArm -3.904702 0.000000 14.590774
LeftHand -10.749844 -0.000000 -5.521731
LeftHandThumb1 -26.253704 0.000000 33.147579
RightShoulder 10.948471 25.565283 -12.241343
RightArm 19.671085 20.452475 117.775916
RightForeArm 24.286210 -0.000000 101.069938
RightHand -8.696588 -0.000000 -0.124138
RightHandThumb1 -24.326973 -0.000000 -32.862282
LeftUpLeg -1.421409 -8.429804 -2.337966
LeftLeg 1.805098 -0.000000 -0.000000
LeftFoot -15.079598 12.018110 -23.204099
LeftToeBase 8.482846 -0.000000 -0.000000
RightUpLeg 5.435086 -11.848256 -5.316430
RightLeg -3.474929 -0.000000 0.000000
RightFoot -18.272335 -18.623304 11.384593
RightToeBase 5.571529 -0.000000 -0.000000
928
root -1.185574 31.783245 -6.582942 4.820372 19.824167 5.322951
Spine -7.894550 3.925608 -2.894787
Head 10.162841 -9.530861 0.894397
LeftShoulder -9.191351 17.150584 3.686977
LeftArm 26.902908 40.766135 -67.669421
LeftForeArm -3.900159 -0.000000 14.614389
LeftHand -10.749623 -0.000000 -5.528364
LeftHandThumb1 -26.253704 0.000000 33.147579
RightShoulder 10.927193 25.476597 -12.203039
RightArm 19.533417 20.260416 117.576012
RightForeArm 24.196274 -0.000000 100.865577
RightHand -8.878939 -0.000000 0.242016
RightHandThumb1 -24.326973 -0.000000 -32.862282
LeftUpLeg -1.443276 -8.375824 -2.338730
LeftLeg 1.832531 -0.000000 -0.000000
LeftFoot -15.109396 12.039742 -23.235856
LeftToeBase 8.485523 -0.000000 -0.000000
RightUpLeg 5.413875 -11.815772 -5.316457
RightLeg -3.512633 -0.000000 0.000000
RightFoot -18.236485 -18.561348 11.390217
RightToeBase 5.591853 -0.000000 -0.000000
929
root -1.183914 31.784096 -6.589298 4.828432 19.678473 5.341979
Spine -7.869327 3.839193 -2.845702
Head 10.048638 -9.253437 0.789130
LeftShoulder -9.240365 17.156475 3.673909
LeftArm 26.857424 40.775561 -67.700304
LeftForeArm -3.906228 -0.000000 14.587741
LeftHand -10.750870 -0.000000 -5.610120
LeftHandThumb1 -26.253704 0.000000 33.147579
RightShoulder 10.954525 25.316464 -12.174644
RightArm 19.512098 20.024899 117.437553
RightForeArm 24.201973 -0.000000 100.688793
RightHand -9.030602 0.000000 0.034082
RightHandThumb1 -24.326973 -0.000000 -32.862282
LeftUpLeg -1.439491 -8.316584 -2.375176
LeftLeg 1.820209 -0.000000 -0.000000
LeftFoot -15.115913 12.129963 -23.235044
LeftToeBase 8.405307 -0.000000 -0.000000
RightUpLeg 5.369932 -11.766479 -5.351102
RightLeg -3.508887 -0.000000 0.000000
RightFoot -18.213211 -18.489628 11.338741
RightToeBase 5.600483 -0.000000 -0.000000
930
root -1.180573 31.783613 -6.589506 4.806544 19.501451 5.323317
Spine -7.852726 3.792248 -2.761387
Head 9.992620 -8.981297 0.685785
LeftShoulder -9.305200 17.179892 3.664187
LeftArm 26.888482 40.874150 -67.684060
LeftForeArm -3.890333 -0.000000 14.479903
LeftHand -10.624616 -0.000000 -5.558821
LeftHandThumb1 -26.253704 0.000000 33.147579
RightShoulder 11.012756 25.208149 -12.154822
RightArm 19.439229 19.809029 117.280345
RightForeArm 24.064308 -0.000000 100.538791
RightHand -9.057888 -0.000000 -0.450754
RightHandThumb1 -24.326973 -0.000000 -32.862282
LeftUpLeg -1.397130 -8.197067 -2.383402
LeftLeg 1.795779 -0.000000 -0.000000
LeftFoot -15.164402 12.172826 -23.252423
LeftToeBase 8.502926 -0.000000 -0.000000
RightUpLeg 5.379262 -11.684776 -5.357116
RightLeg -3.569734 -0.000000 0.000000
RightFoot -18.146947 -18.413501 11.291042
RightToeBase 5.602105 -0.000000 -0.000000
931
root -1.178137 31.784725 -6.595079 4.817441 19.321926 5.330201
Spine -7.843285 3.761305 -2.700062
Head 9.937977 -8.720849 0.539633
LeftShoulder -9.346410 17.165912 3.652239
LeftArm 26.876029 40.911629 -67.689835
LeftForeArm -4.033272 -0.000000 14.430558
LeftHand -10.644102 -0.000000 -5.664884
LeftHandThumb1 -26.253704 0.000000 33.147579
RightShoulder 11.052853 25.185165 -12.119687
RightArm 19.325295 19.583751 117.121715
RightForeArm 23.956457 -0.000000 100.390375
RightHand -9.072445 -0.000000 -0.453959
RightHandThumb1 -24.326973 -0.000000 -32.862282
LeftUpLeg -1.392979 -8.119035 -2.412260
LeftLeg 1.777831 -0.000000 -0.000000
LeftFoot -15.177402 12.285717 -23.243140
LeftToeBase 8.480476 -0.000000 -0.000000
RightUpLeg 5.340076 -11.584310 -5.383581
RightLeg -3.599255 -0.000000 0.000000
RightFoot -18.100153 -18.329899 11.281179
RightToeBase 5.593429 -0.000000 -0.000000
